Coordinates
version=1
nRows=5
nColumns=42
inDegrees=yes

Units are S.I. units (second, meters, Newtons, ...)
If the header above contains a line with 'inDegrees', this indicates whether rotational values are in degrees (yes) or radians (no).

endheader
time	pelvis_tilt	pelvis_list	pelvis_rotation	pelvis_tx	pelvis_ty	pelvis_tz	hip_flexion_r	hip_adduction_r	hip_rotation_r	knee_angle_r	knee_adduction_r	knee_angle_r_beta	ankle_angle_r	subtalar_angle_r	mtp_angle_r	hip_flexion_l	hip_adduction_l	hip_rotation_l	knee_angle_l	knee_adduction_l	knee_angle_l_beta	ankle_angle_l	subtalar_angle_l	mtp_angle_l	lumbar_extension	lumbar_bending	lumbar_rotation	arm_flex_r	arm_add_r	arm_rot_r	elbow_flex_r	pro_sup_r	wrist_flex_r	wrist_dev_r	arm_flex_l	arm_add_l	arm_rot_l	elbow_flex_l	pro_sup_l	wrist_flex_l	wrist_dev_l
      1.98000000	     15.23457052	     -1.60985352	     -1.75868400	      1.00946343	      0.86488250	     -0.19755315	     -0.11499030	      0.21608574	     -6.09851539	     61.32993667	     -5.73485568	      1.07040932	     13.82180790	    -15.69947627	     -7.50070372	    -15.41911551	     -0.84568377	     -3.70547059	      7.11537025	      6.64544594	      0.12418664	     15.20719898	     -1.86417634	     -7.50070372	    -26.50332016	      0.81208442	      5.54097923	      0.86113022	     -8.47194289	     -0.77566762	     29.84648069	     90.00000001	      0.00000000	      0.00000000	     11.68797864	     -6.09356479	     -4.09072190	     27.53958989	     90.00000001	      0.00000000	      0.00000000
      1.99000000	     15.44402403	     -1.96871970	     -1.19599435	      1.01993498	      0.86539405	     -0.19876903	      0.77481187	      0.77030749	     -5.64869056	     59.75887867	     -4.74443636	      1.04298919	     14.22461216	    -16.11673970	     -7.50067309	    -16.89193440	     -1.35137525	     -3.68550788	      6.12842643	      6.81405538	      0.10696122	     15.61317396	     -0.83815601	     -7.50067309	    -26.73062005	      1.41025413	      5.21383820	      0.00548361	     -8.16263851	     -2.27706135	     29.43577657	     90.00000001	      0.00000000	      0.00000000	     12.67536931	     -6.53957219	     -2.16427904	     28.76351613	     90.00000001	      0.00000000	      0.00000000
      2.00000000	     15.16283244	     -1.99517334	     -0.78803497	      1.02989674	      0.86487900	     -0.19993541	      2.43294703	      0.89555903	     -5.59454315	     58.36040312	     -4.19324667	      1.01858119	     15.10889984	    -16.27649360	     -7.50065840	    -17.54582780	     -1.39423253	     -3.87353383	      5.63009980	      6.75180686	      0.09826378	     15.98372897	     -0.17246357	     -7.50065840	    -26.47483539	      1.62066621	      4.82775726	     -0.91315325	     -8.05572318	     -2.62800012	     29.16468322	     90.00000001	      0.00000000	      0.00000000	     13.85332234	     -6.79550204	     -1.60208042	     29.62530275	     90.00000001	      0.00000000	      0.00000000
      2.01000000	     15.29207691	     -2.23699833	     -0.26001350	      1.04012414	      0.86484084	     -0.20109679	      3.28654090	      1.26296596	     -4.98594920	     56.25785601	     -3.09759492	      0.98188482	     15.38210384	    -16.62396005	     -7.50063106	    -18.84375890	     -1.80151997	     -3.90007570	      4.76579901	      6.94504745	      0.08317888	     16.40680781	      0.88468638	     -7.50063106	    -26.65095369	      2.07843243	      4.53302708	     -1.86380613	     -7.90065753	     -3.60331559	     29.02226656	     90.00000001	      0.00000000	      0.00000000	     14.93706910	     -7.17710220	     -0.13569963	     30.86962832	     90.00000001	      0.00000000	      0.00000000
      2.02000000	     15.17495401	     -2.28461951	      0.15951360	      1.05034201	      0.86417097	     -0.20192369	      4.47808275	      1.37798828	     -4.75228105	     54.16979342	     -2.32534926	      0.94544125	     15.84741642	    -16.76685646	     -7.50061090	    -19.73785531	     -1.95768486	     -4.01182481	      4.19978329	      6.99941901	      0.07330005	     16.86293836	      1.74189444	     -7.50061090	    -26.52850410	      2.27766853	      4.18379355	     -2.82396591	     -7.68726733	     -4.11041682	     28.93338763	     90.00000001	      0.00000000	      0.00000000	     16.02879880	     -7.49438748	      0.65071955	     31.87033442	     90.00000001	      0.00000000	      0.00000000
